<svg width="28" height="28" viewBox="0 0 28 28" fill="none" xmlns="http://www.w3.org/2000/svg">
<g clip-path="url(#clip0_3_26411)">
<path d="M8.0897 3.54725C7.01945 3.75093 6.14689 4.58536 5.91512 5.63003C5.80605 6.12281 5.80605 21.8521 5.91512 22.3449C6.15371 23.4224 7.01263 24.224 8.15787 24.4342C8.66914 24.5262 19.3921 24.5196 19.917 24.4276C20.7146 24.2897 21.5326 23.7246 21.8462 23.1004C22.1802 22.4237 22.1666 22.7522 22.1666 16.2213V10.0781L19.2694 10.0453C16.5017 10.0124 16.3586 10.0058 16.0995 9.87444C15.9496 9.80217 15.7382 9.61163 15.6224 9.46051L15.4179 9.17799L15.3838 6.3462L15.3497 3.50783L11.8731 3.50126C9.96434 3.49469 8.26012 3.5144 8.0897 3.54725ZM14.5589 13.521C14.9748 13.81 15.0088 13.9086 15.0429 15.1241L15.077 16.2542L16.2359 16.287C17.5447 16.3265 17.7083 16.3725 17.9674 16.8127C18.1446 17.1215 18.1514 17.3514 17.9742 17.6997C17.7424 18.1662 17.5652 18.2187 16.2359 18.2581L15.077 18.291L15.0429 19.4079C15.0088 20.4198 14.9884 20.5446 14.8521 20.768C14.6953 21.0045 14.3067 21.2148 14.0204 21.2148C13.7341 21.2148 13.3387 21.0045 13.1887 20.7614C13.0456 20.5446 13.0319 20.4198 12.9979 19.4079L12.9638 18.291L11.8049 18.2581C10.8301 18.2319 10.6119 18.2056 10.4347 18.1004C9.9848 17.8376 9.81437 17.2529 10.0734 16.8192C10.3393 16.3593 10.5915 16.287 11.8935 16.287H12.9979V15.2227C12.9979 13.8232 13.0728 13.6458 13.8159 13.3764C13.9795 13.3173 14.3817 13.3895 14.5589 13.521Z" fill="currentColor"/>
<path d="M16.7472 6.12939C16.7472 8.10705 16.7676 8.67866 16.8358 8.69838C16.8767 8.71809 18.0901 8.72466 19.5217 8.71809L22.1325 8.69838L19.5148 6.16881C18.0697 4.78248 16.8631 3.63268 16.8222 3.61954C16.7676 3.59983 16.7472 4.35541 16.7472 6.12939Z" fill="currentColor"/>
</g>
<defs>
<clipPath id="clip0_3_26411">
<rect width="28" height="28" fill="currentColor"/>
</clipPath>
</defs>
</svg>
