<svg width="24" height="24" viewBox="0 0 24 24" fill="none" xmlns="http://www.w3.org/2000/svg">
<path fill-rule="evenodd" clip-rule="evenodd" d="M9.11411 3.90001C5.6818 3.90001 2.89998 6.68123 2.89998 10.1113C2.89998 13.5413 5.6818 16.3225 9.11411 16.3225C10.8312 16.3225 12.3841 15.6276 13.5097 14.5017C14.6344 13.3768 15.3282 11.8259 15.3282 10.1113C15.3282 6.68123 12.5464 3.90001 9.11411 3.90001ZM1.09998 10.1113C1.09998 5.68643 4.68837 2.10001 9.11411 2.10001C13.5399 2.10001 17.1282 5.68643 17.1282 10.1113C17.1282 11.9984 16.4747 13.7341 15.3829 15.1028L20.6368 20.3641C20.988 20.7158 20.9876 21.2856 20.6359 21.6368C20.2842 21.9881 19.7144 21.9877 19.3631 21.636L14.1101 16.3756C12.7405 17.4684 11.0031 18.1225 9.11411 18.1225C4.68837 18.1225 1.09998 14.5361 1.09998 10.1113Z" fill="currentColor"/>
</svg>
